/* XPM */
static const char * ai1_xpm[] = {
"18 18 16 1",
" 	c #000000",
".	c #008000",
"+	c #00CC00",
"@	c #00FF00",
"#	c #00FFFF",
"$	c #FFFBF0",
"%	c #808080",
"&	c #404040",
"*	c #000000",
"=	c #000000",
"-	c #000000",
";	c #000000",
">	c #000000",
",	c #000000",
"'	c #000000",
")	c #000000",
"&&&&&&&&&&&&&&&&&&",
"&&&&          &&&&",
"&&& .+++++++++ &&&",
"&&& +@@@@@@@@. &&&",
"&&& +@#####$+. &&&",
"&&& +@#%%$$#+. &&&",
"&&& +@######+. &&&",
"&&& +@++++++@. &&&",
"&&& +@@@@@@@@. &&&",
"&&& +@.+..+.@. &&&",
"&&& +@++++++@. &&&",
"&&& +@.+..+.@. &&&",
"&&& +@++++++@. &&&",
"&&& +@.+..+.@. &&&",
"&&& +@@@@@@@@. &&&",
"&&& +......... &&&",
"&&&&          &&&&",
"&&&&&&&&&&&&&&&&&&"};
