/* XPM */
static const char * ai2_xpm[] = {
"18 18 16 1",
" 	c #000000",
".	c #0001CC",
"+	c #000080",
"@	c #00FFFF",
"#	c #FFFBF0",
"$	c #0000FF",
"%	c #404040",
"&	c #000000",
"*	c #000000",
"=	c #000000",
"-	c #000000",
";	c #000000",
">	c #000000",
",	c #000000",
"'	c #000000",
")	c #000000",
"%%%%%%%%%%%%%%%%%%",
"%%%%%%      %%%%%%",
"%%%%% ...... %%%%%",
"%%%% .+++++++ %%%%",
"%%%% .+@@@@.+ %%%%",
"%%%% .+@##@.+ %%%%",
"%%%% .+@#@@.+ %%%%",
"%%%% .+@@@@.+ %%%%",
"%%%% .......+ %%%%",
"%%%% .+++++++ %%%%",
"%%%%%   .+   %%%%%",
"%%   +.$$$$.+   %%",
"% .............+ %",
"% .+++$$$$$$$+$+ %",
"% .$$$$$$$$$$$$+ %",
"% .+++++++++++++ %",
"%%              %%",
"%%%%%%%%%%%%%%%%%%"};
