/* XPM */
static const char * att_xpm[] = {
"156 12 33 1",
" 	c None",
".	c #990000",
"+	c #C20000",
"@	c #FF0000",
"#	c #1A1A1A",
"$	c #3D3333",
"%	c #4B3F3F",
"&	c #615151",
"*	c #666666",
"=	c #611F05",
"-	c #912F08",
";	c #612800",
">	c #663300",
",	c #804000",
"'	c #994D00",
")	c #B25900",
"!	c #C26100",
"~	c #FF8000",
"{	c #3D2000",
"]	c #4C2800",
"^	c #4B4135",
"/	c #3C342A",
"(	c #2D281F",
"_	c #CC8800",
":	c #FFAA00",
"<	c #FFCC66",
"[	c #333C4C",
"}	c #525F7A",
"|	c #667699",
"1	c #7584A3",
"2	c #8592AD",
"3	c #949FB8",
"4	c #0001FF",
"   #####      #######    ######       ### ###            ##   #######            ###   ###                       #                       #           #      ",
"  #{]]{{#    #]]]]]]]#  #],,>]{#     #===#===#          #32# #[[[[[[[#          #12#  #>{>#          #          #}#         #           #_#         #_#     ",
" #>],>],>#   #}222||}#  #]]]>>{#    #==.===.==#        #3}[# #[}|}|}[#          #1}# #{###{#        #|#         #|#        #:#          #:#         #:#     ",
"#(/^^^//((#  #}||||}}#  #{{{]{{#    #=.+.=.+.=#       #2}[#  #[}}|}}[#         #>## #4~# #%$##     #}3}#       #}|}#      #_<_#        #_~_#       #_~_#    ",
"#,>],>],>]#   ##')'##    #]]]]#     #=.++.++.=#      #2}[#   #[}|3|}[#        #>#   #~:~##%$#$#   #|333|#    ###|3|###   #:<<<:#     ###:::###   ###:!~###  ",
"#,>],>],>]#     #'#      #]>>]#     #=..+....=#  ## #3}[#    #[}}|}}[#       #>#    #@~@#%&&$%$#   #}3}#    #|||}3}||}#   #_<_#     #_~:_<_:~_# #_~:-+-:~_# ",
"#,>],>],>]#     #|#      #>,>]#      #=.+...=#   #]#1}[#     #[}|}|}[#      #>#      ####%$$*%%#   #|#|#     #}33333}#    #:#:#      #_:<<<:_#   #_!+@+~_#  ",
"#>>{>>{>>{#   ##2|}##    #>,>{####   #==.+.==#    #>}[#      #[}|||}[#    ##]#         #$&&*&&%#    # #       #}}3}}#      # #        #__<__#     #_-+-_#   ",
"#(/^^//(((#  #}2|'||}#  #]],>]]>,,#   #=...=#    #')>#        #[}|}[#    #']#          #%%&&&%%#              #}3}3}#                 #_:_:_#     #_~!~_#   ",
" #>],>],>#   #}|')'|}#  #{>>>,,,>>]#   #=.=#    #'),#]#        #[}[#    #'>'#          #$%%&%%$#              #|}#}|#                 #:_#_:#     #:_#_:#   ",
"  #{]]{{#    #]]]]]]]#  #{]]{{{]]]{#    #=#     #;,# ##         #[#     #]'#            #$%%%$#               #|# #|#                 #~# #~#     #~# #~#   ",
"   #####      #######    ##########      #       ##              #       ##              #####                ##   ##                 ##   ##     ##   ##   "};
