/* XPM */
static const char * building_icon_xpm[] = {
"144 72 37 1",
" 	c None",
".	c #010080",
"+	c #331500",
"@	c #1A1A1A",
"#	c #3D2000",
"$	c #332300",
"%	c #471E00",
"&	c #2D281F",
"*	c #611F05",
"=	c #4C2800",
"-	c #542C00",
";	c #3C342A",
">	c #4E321D",
",	c #483610",
"'	c #613400",
")	c #663300",
"!	c #333C4C",
"~	c #4B3F3F",
"{	c #4B4135",
"]	c #3435F2",
"^	c #52402D",
"/	c #324D19",
"(	c #804000",
"_	c #5A4E3F",
":	c #3F6020",
"<	c #615151",
"[	c #494AFF",
"}	c #695B49",
"|	c #525F7A",
"1	c #B25900",
"2	c #7B6B56",
"3	c #C26100",
"4	c #667699",
"5	c #808080",
"6	c #7584A3",
"7	c #949FB8",
"8	c #FFAA00",
"&&&&&&&&&&&&&&&&&&)       ))       )$$$$$$$$$$$$$$$$$$$$$            $$$   &&&      &&&         @@@@@@         ++++++++++++    &&            && ",
"&^^^^^^^^^^^^^^^^&))  )  )(()  )  ))$================$$//$$$      $$$//$ &&___&&&&&&___&&     @@;;;;;;@@      +%%%%%%%%%%%%+  &]]&    &&    &]]&",
"&^<<<<<^+..^^.^<^&)1))1))(11())1))1)$=;;----------;;=$$/:///$$$$$$///:/$&__&&&______&&&__&   @;;^^^^^^;;@    +%************%+ &][]&&&&]]&&&&][]&",
"&^<<<<<^+....^<<^&)3113111331113113)$;++;--------;!;=$$/:::://////::::/$&_&###&&&&&&###&_&  @;^^^^^^^^^^;@  +%***%%*%%*%%***%+&][[]]]]]]]]]][[]&",
"&^<<<<<^+^^^^<<<^&)(33333333333333()$;+%+;------;!!;=$$/:////::::::////$&&##############&& @;^^^^^^^;;;^^;@ +%**%11%1(%11%**%+&][[[[[]&@][[[[[]&",
"&^<<<<<^++^<<<<<^&&))))))))))))))))&$=;+%;-----;!|;-=$$//####//:::/&&//$&_&##&&&##&&&##&_& @;^^^^^^;&@&;^;@ +%*%1%%(33(%%1%*%+&][[[[]&]]@][[[[]&",
"&^<<<<<^%+^<<<<<^&&________________&$=-;%+;;;;-;+!;-=$$/:>//###/::/+&//$&_&#&___&&___&#&_&@;^;;;;;;;@@@;^^;@+%*%!%*%1(%*%!%*%+&][[[[]@]&@][[[[]&",
"&^<<<<^+*%+<<<<<^& &_}=-=}}}}=-=}_& $=-;+%@@@&;#+;--=$$/:>:://##//+//:/$&__&__}}}}}}}_&__&@;;+======@@@=;^;@+%*%!%*%1(%*%!%*%+&][[[[]]@@]][[[[]&",
"&^<<<<^+*%+^<<<<^& &}}'''----'''}}& $=--;@!&;;;+;---=$$/:>::::/##+/:::/$&_}__#_}}}}}}}_}_&@;;+++++++@@@+;^;@+%%!%!%%1(%%!%!%%+&][[[]&@&@&@][[[]&",
"&^<<<^+*%%%+^<<<^& &}}'''-''-'''}}& $=-;@@|!;;#+;---=$$/:>:::::/+#/:::/$&_}_#-+_}}}}}}}}_&@;^;;;;;;;@@@;^^;@+%%!%!%%1(%%!%!%%+&][[[]@@&@@@][[[]&",
"&^<<^+*%%%%%+^<<^& &}}=-=_'-_=-=}}& $=-;@;@6!#+;----=$$/:>::::/+/#/:::/$&__#==#+_}}}}}}}_&@;^^^^^^^;&@&;^^;@+%!%*%!%1(%!%*%!%+&][[[[]]&@]][[[[]&",
"&^<<<^&++++&^<<<^& &}}}}}}'=}}}}}}& $=-;&;;@|+;-----=$$/:>:::/+//##/::/$&_}__#=#+_____}}_&@;^^^^;;;;;;;;;^;@+%!%%%!%1(%!%%%!%+&][[[[[]&@][[[[[]&",
"&^<<<^&~~!~&^<<<^&&_};;;}}'=}}|44|_&$=--;--;|!;-----=$$/:>://+/:/##/::/$&_}}}_=-#####+_}_&@;^^;;&@@@@@@@&;;@+%(131(%1(%(131(%+&][[[[[]&@][[[[[]&",
" &^<<^&~;;!&^<<^& &_}^;^}}'=}}4774}&$=----;+@6!;----=$$/:>/*+/:::/#/::/$&_}}}_-=---==#+__&@;;;&@@@@@@@@@@;;@+%%(1(%%1(%%(1(%%+&][[][[]&@][[][[]&",
" &^<<^&!;!{&^<<^& &}2};}2}'=}}4774}&$=----;#;@|;----=$$/:>*+*/:::/#/::/$&_}}}_=#===#=#+__&@;&@@@@@@@@@@@@;;@+%*%%%*%1(%*%%%*%+&][]&][]&@][]&][]&",
" &^<<^&{{!;&^<<^& &}}^;^}}'=}}|44|}&$=---;#+;;|!;---=$ $/>+*/::::/#/:/$ &_}}}_-##==#-#+__&@;;;&@@@@@@@@@@;;@+%*****%1(%*****%+&]]&@][]&@][]&@]]&",
"  &^<^&!{;!&^<^&  &}};;;}}'=}2}}}}}&$=--;#+;-;@6!;--=$ $/,>>>>:::/#/:/$ &_}}}_=#____==+__&@;^^;;&@@@@@@@&;;@+%*****%((%*****%+&]]@@][]&@][]@@]]&",
"  &^<^&{!!~&^<^&  &_}}}}2}'=}2222}_&$=--;#;---;@|;--=$ $/:::::>>>>#/:/$ &_}}}_=_}}}_#=_}_&@;^^^^;;&@@&;;;^;@+%****%(11(%****%+&][]@&]]&@]]&@][]&",
"   &^^&;;!~&^^&    &}2222}'=}2222}&  $=;++;----;|!;=$   $/::::::::/:/$   &_}}_#_}}}}_#_}&  @;^^^;&@@@@&;^;@  +%**%(1331(%**%+  &]]@@&]&@]&@@]]& ",
"    &^^&&&&^^&     &_}222_'=_222}_&  $=;+;-----;@!;=$   $/::::::::::/$   &_}}_#_}}}}_#__&  @;^^;&@@@@@@&;;@   +%**%%%%%%**%+   &][]@@&&@&@@][]& ",
"     &^^^^^^&       &_}2}-''=}2}_&    $=;-------;;=$     $/::::::::/$     &_}}_}}}}}}__&    @;^^;;;;;;;;;@     +%********%+     &][]@@@@@@][]&  ",
"      &^<<^&         &_}}--==}}_&      $==------==$       $//:::://$       &__}}}}}}__&      @;;^^^^^^;;@       +%******%+       &]]]]&@]]]]&   ",
"       &^^&           &&_}}}}_&&        $$======$$         $$////$$         &&______&&        @@;;;;;;@@         +%%%%%%+         &&]]]]]]&&    ",
"        &&              &&&&&&            $$$$$$             $$$$             &&&&&&            @@@@@@            ++++++            &&&&&&      ",
"8888888888888888888       88       8888888888888888888888            888   888      888         888888         888888888888    88            88 ",
"8^^^^^^^^^^^^^^^^888  8  8((8  8  888================88//888      888//8 88___888888___88     88;;;;;;88      8%%%%%%%%%%%%8  8]]8    88    8]]8",
"8^<<<<<^+..^^.^<^88188188(11(88188188=;;----------;;=88/:///888888///:/88__&&&______&&&__8   8;;^^^^^^;;8    8%************%8 8][]8888]]8888][]8",
"8^<<<<<^+....^<<^88311311133111311388;++;--------;!;=88/:::://////::::/88_&###&&&&&&###&_8  8;^^^^^^^^^^;8  8%***%%*%%*%%***%88][[]]]]]]]]]][[]8",
"8^<<<<<^+^^^^<<<^88(33333333333333(88;+%+;------;!!;=88/:////::::::////88&##############&8 8;^^^^^^^;;;^^;8 8%**%11%1(%11%**%88][[[[[]&@][[[[[]8",
"8^<<<<<^++^<<<<<^88))))))))))))))))88=;+%;-----;!|;-=88//####//:::/&&//88_&##&&&##&&&##&_8 8;^^^^^^;&@&;^;8 8%*%1%%(33(%%1%*%88][[[[]&]]@][[[[]8",
"8^<<<<<^%+^<<<<<^88________________88=-;%+;;;;-;+!;-=88/:>//###/::/+&//88_&#&___&&___&#&_88;^;;;;;;;@@@;^^;88%*%!%*%1(%*%!%*%88][[[[]@]&@][[[[]8",
"8^<<<<^+*%+<<<<<^8 8_}=-=}}}}=-=}_8 8=-;+%@@@&;#+;--=88/:>:://##//+//:/88__&__}}}}}}}_&__88;;+======@@@=;^;88%*%!%*%1(%*%!%*%88][[[[]]@@]][[[[]8",
"8^<<<<^+*%+^<<<<^8 8}}'''----'''}}8 8=--;@!&;;;+;---=88/:>::::/##+/:::/88_}__#_}}}}}}}_}_88;;+++++++@@@+;^;88%%!%!%%1(%%!%!%%88][[[]&@&@&@][[[]8",
"8^<<<^+*%%%+^<<<^8 8}}'''-''-'''}}8 8=-;@@|!;;#+;---=88/:>:::::/+#/:::/88_}_#-+_}}}}}}}}_88;^;;;;;;;@@@;^^;88%%!%!%%1(%%!%!%%88][[[]@@&@@@][[[]8",
"8^<<^+*%%%%%+^<<^8 8}}=-=_'-_=-=}}8 8=-;@;@6!#+;----=88/:>::::/+/#/:::/88__#==#+_}}}}}}}_88;^^^^^^^;&@&;^^;88%!%*%!%1(%!%*%!%88][[[[]]&@]][[[[]8",
"8^<<<^&++++&^<<<^8 8}}}}}}'=}}}}}}8 8=-;&;;@|+;-----=88/:>:::/+//##/::/88_}__#=#+_____}}_88;^^^^;;;;;;;;;^;88%!%%%!%1(%!%%%!%88][[[[[]&@][[[[[]8",
"8^<<<^&~~!~&^<<<^88_};;;}}'=}}|44|_88=--;--;|!;-----=88/:>://+/:/##/::/88_}}}_=-#####+_}_88;^^;;&@@@@@@@&;;88%(131(%1(%(131(%88][[[[[]&@][[[[[]8",
" 8^<<^&~;;!&^<<^8 8_}^;^}}'=}}4774}88=----;+@6!;----=88/:>/*+/:::/#/::/88_}}}_-=---==#+__88;;;&@@@@@@@@@@;;88%%(1(%%1(%%(1(%%88][[][[]&@][[][[]8",
" 8^<<^&!;!{&^<<^8 8}2};}2}'=}}4774}88=----;#;@|;----=88/:>*+*/:::/#/::/88_}}}_=#===#=#+__88;&@@@@@@@@@@@@;;88%*%%%*%1(%*%%%*%88][]&][]&@][]&][]8",
" 8^<<^&{{!;&^<<^8 8}}^;^}}'=}}|44|}88=---;#+;;|!;---=8 8/>+*/::::/#/:/8 8_}}}_-##==#-#+__88;;;&@@@@@@@@@@;;88%*****%1(%*****%88]]&@][]&@][]&@]]8",
"  8^<^&!{;!&^<^8  8}};;;}}'=}2}}}}}88=--;#+;-;@6!;--=8 8/,>>>>:::/#/:/8 8_}}}_=#____==+__88;^^;;&@@@@@@@&;;88%*****%((%*****%88]]@@][]&@][]@@]]8",
"  8^<^&{!!~&^<^8  8_}}}}2}'=}2222}_88=--;#;---;@|;--=8 8/:::::>>>>#/:/8 8_}}}_=_}}}_#=_}_88;^^^^;;&@@&;;;^;88%****%(11(%****%88][]@&]]&@]]&@][]8",
"   8^^&;;!~&^^8    8}2222}'=}2222}8  8=;++;----;|!;=8   8/::::::::/:/8   8_}}_#_}}}}_#_}8  8;^^^;&@@@@&;^;8  8%**%(1331(%**%8  8]]@@&]&@]&@@]]8 ",
"    8^^&&&&^^8     8_}222_'=_222}_8  8=;+;-----;@!;=8   8/::::::::::/8   8_}}_#_}}}}_#__8  8;^^;&@@@@@@&;;8   8%**%%%%%%**%8   8][]@@&&@&@@][]8 ",
"     8^^^^^^8       8_}2}-''=}2}_8    8=;-------;;=8     8/::::::::/8     8_}}_}}}}}}__8    8;^^;;;;;;;;;8     8%********%8     8][]@@@@@@][]8  ",
"      8^<<^8         8_}}--==}}_8      8==------==8       8//:::://8       8__}}}}}}__8      8;;^^^^^^;;8       8%******%8       8]]]]&@]]]]8   ",
"       8^^8           88_}}}}_88        88======88         88////88         88______88        88;;;;;;88         8%%%%%%8         88]]]]]]88    ",
"        88              888888            888888             8888             888888            888888            888888            888888      ",
"5555555555555555555       55       5555555555555555555555            555   555      555         555555         555555555555    55            55 ",
"5<<<<<<<<<<<<<<<<555  5  5~~5  5  555~~~~~~~~~~~~~~~~55<<555      555<<5 55<<<555555<<<55     55~~~~~~55      5<<<<<<<<<<<<5  5<<5    55    5<<5",
"5<<<<<<<;;;<<;<<<55<55<55~<<~55<55<55~~~~~~~~~~~~~~~~55<<<<<555555<<<<<55<<;;;<<<<<<;;;<<5   5~~<<<<<<~~5    5<<<<<<<<<<<<<<5 5<<<5555<<5555<<<5",
"5<<<<<<<;;;;;<<<<55<<<<<<<<<<<<<<<<55~;;~~~~~~~~~~~~~55<<<<<<<<<<<<<<<<55<;~~~;;;;;;~~~;<5  5~<<<<<<<<<<~5  5<<<<<<<<<<<<<<<<55<<<<<<<<<<<<<<<<5",
"5<<<<<<<;<<<<<<<<55~<<<<<<<<<<<<<<~55~;~;~~~~~~~~~~~~55<<<<<<<<<<<<<<<<55;~~~~~~~~~~~~~~;5 5~<<<<<<<~~~<<~5 5<<<<~~<~;<~~<<<<55<<<<<<<~;<<<<<<<5",
"5<<<<<<<;;<<<<<<<55;;;;;;;;;;;;;;;;55~~;~~~~~~~~~<~~~55<<~~~~<<<<<<;;<<55<;~~;;;~~;;;~~;<5 5~<<<<<<~;;;~<~5 5<<<~<<;~~;<<~<<<55<<<<<<~<<;<<<<<<5",
"5<<<<<<<~;<<<<<<<55<<<<<<<<<<<<<<<<55~~~~;~~~~~~;~~~~55<<~<<~~~<<<<;;<<55<;~;<<<;;<<<;~;<55~<~~~~~~~;;;~<<~55<<<~<<<~;<<<~<<<55<<<<<<;<~;<<<<<<5",
"5<<<<<<;~~;<<<<<<5 5<<~~~<<<<~~~<<5 5~~~;~;;;;~~;~~~~55<<~<<<<~~<<;<<<<55<<;<<<<<<<<<<;<<55~~;~~~~~~;;;~~<~55<<<~<<<~;<<<~<<<55<<<<<<<;;<<<<<<<5",
"5<<<<<<;~~;<<<<<<5 5<<~~~~~~~~~~<<5 5~~~~;~;~~~;~~~~~55<<~<<<<<~~;<<<<<55<<<<~<<<<<<<<<<<55~~;;;;;;;;;;;~<~55<<~<~<<~;<<~<~<<55<<<<<~;~;~;<<<<<5",
"5<<<<<;~~~~;<<<<<5 5<<~~~~~~~~~~<<5 5~~~;;<~~~~;~~~~~55<<~<<<<<<;~<<<<<55<<<~~;<<<<<<<<<<55~<~~~~~~~;;;~<<~55<<~<~<<~;<<~<~<<55<<<<<;;~;;;<<<<<5",
"5<<<<;~~~~~~;<<<<5 5<<~~~<~~<~~~<<5 5~~~;~;<~~;~~~~~~55<<~<<<<<;<~<<<<<55<<~~~~;<<<<<<<<<55~<<<<<<<~;;;~<<~55<~<<<~<~;<~<<<~<55<<<<<<<~;<<<<<<<5",
"5<<<<<;;;;;;<<<<<5 5<<<<<<~~<<<<<<5 5~~~;~~;<;~~~~~~~55<<~<<<<;<<~~<<<<55<<<<~~~;<<<<<<<<55~<<<<~~~~~~~~~<~55<~<<<~<~;<~<<<~<55<<<<<<<~;<<<<<<<5",
"5<<<<<;~~~~;<<<<<55<<~~~<<~~<<;~~;<55~~~~~~~<~~~~~~~~55<<~<<<;<<<~~<<<<55<<<<<~~~~~~~;<<<55~<<~~;;;;;;;;;~~55<;~~~;<~;<;~~~;<55<<<<<<<~;<<<<<<<5",
" 5<<<<;~~~~;<<<<5 5<<<~<<<~~<<~<<~<55~~~~~~;;<~~~~~~~55<<~<~;<<<<<~<<<<55<<<<<~~~~~~~~;<<55~~~;;;;;;;;;;;~~55<<;~;<<~;<<;~;<<55<<<<<<<~;<<<<<<<5",
" 5<<<<;~~~{;<<<<5 5<<<~<<<~~<<~<<~<55~~~~~~~~;<~~~~~~55<<~~;~<<<<<~<<<<55<<<<<~~~~~~~~;<<55~;;;;;;;;;;;;;~~55<<<<<<<~;<<<<<<<55<<<~<<<~;<<<~<<<5",
" 5<<<<;{{~~;<<<<5 5<<<~<<<~~<<;~~;<55~~~~~~;~~<~~~~~~5 5<~;~<<<<<<~<<<5 5<<<<<~~~~~~~~;<<55~~~;;;;;;;;;;;~~55<<<<<<<~;<<<<<<<55<<~;<<<~;<<<~;<<5",
"  5<<<;~{~~;<<<5  5<<~~~<<~~<<<<<<<55~~~~~;~~~;<~~~~~5 5<<~~~~<<<<~<<<5 5<<<<<~~<<<<~~;<<55~<<~~;;;;;;;;;~~55<<<<<<<;;<<<<<<<55<<;;<<<~;<<<;;<<5",
"  5<<<;{~~~;<<<5  5<<<<<<<~~<<<<<<<55~~~~~~~~~~;<~~~~5 5<<<<<<~~~~~<<<5 5<<<<<~<<<<<~~<<<55~<<<<~~;;;;~~~<~55<<<<<<;~~;<<<<<<55<<<;~<<~;<<~;<<<5",
"   5<<;~~~~;<<5    5<<<<<<~~<<<<<<5  5~~;;~~~~~~<~~~5   5<<<<<<<<<<<<5   5<<<<~<<<<<<~<<5  5~<<<~;;;;;;~<~5  5<<<<;~~~~;<<<<5  5<<;;~<~;<~;;<<5 ",
"    5<<;;;;<<5     5<<<<<<~~<<<<<<5  5~~;~~~~~~~;~~~5   5<<<<<<<<<<<<5   5<<<<~<<<<<<~<<5  5~<<~;;;;;;;;~~5   5<<<<<<<<<<<<5   5<<<;;~~;~;;<<<5 ",
"     5<<<<<<5       5<<<<~~~~<<<<5    5~~~~~~~~~~~~5     5<<<<<<<<<<5     5<<<<<<<<<<<<5    5~<<~~~~~~~~~5     5<<<<<<<<<<5     5<<<;;;;;;<<<5  ",
"      5<<<<5         5<<<~~~~<<<5      5~~~~~~~~~~5       5<<<<<<<<5       5<<<<<<<<<<5      5~~<<<<<<~~5       5<<<<<<<<5       5<<<<~;<<<<5   ",
"       5<<5           55<<<<<<55        55~~~~~~55         55<<<<55         55<<<<<<55        55~~~~~~55         5<<<<<<5         55<<<<<<55    ",
"        55              555555            555555             5555             555555            555555            555555            555555      "};
