/* XPM */
static const char * font_xpm[] = {
"112 54 5 1",
" 	c None",
".	c #331500",
"+	c #FFCC66",
"@	c #FFEE99",
"#	c #FFFFFF",
"        ..     . .             .            ..     .       .     .                                              ",
"       .##.   .@.#.   . .     .#.   .  .   .@#.   .#.     .#.   .#.     .      .                             .  ",
"        .@.   .+.@.  .#.#.   .@@@. .@..#. .@..@.  .@.    .@.     .#.   .#.    .#.                           .#. ",
"        .@.    . .   .@@@@. .@.@.   ..@.  .+..@.   .     .@.     .@.  .@.@.   .@.           ....           .@.  ",
"        .+.          .+.@.   ..@.   .+..  .+..@.         .+.     .@.  .+.+.  .+@@.    .    .++@#.         .+.   ",
"        .+.          .+.@.   .@.@. .+..+.  .+@.          .+.     .+.   .+.    .+.    .#.    ....    .    .+.    ",
"         .           .+++@.  .+.+.  .  .   ....          .+.     .+.    .     .+.    .@.           .@.    .     ",
"        .+.          .+.+.  .+++.         .++++.          .+.   .+.            .    .+.            .+.          ",
"         .            . .    ....          ....            .     .                   .              .           ",
"  ..      .    ...    ...      ..   ....     ..   ....    ..     ..                     .          .      ..    ",
" .@#.   ..#.  .@@#.  .@@#.    .@#. .@@##.   .##. .@@##.  .@#.   .@#.                   .#.        .@.    .@#.   ",
".@..@. .+@@.   ...@.  ...@.  .@.@. .@...   .@..  .@..@. .@..@. .@..@.                 .#.   ....   .#.    ..@.  ",
".+..@.  ..@.    ..@.   ..@. .+..@. .@..   .@..    ...+. .+..@. .+..@.   .      .     .@.   .@@##.   .@.   ...@. ",
".+..@.   .+.    .@.   .+@.. .++@@. .++@.  .++@.    .+.   .+@.   .+@@.  .#.    .#.   .@.     ....     .@. .++@.  ",
".+..@.   .+.   .+.     ..@.  ...+.  ...@. .+..@.   .+.  .+..@.   ..+.   .      .     .+.   .+++@.   .+.  .+..   ",
".+..+.  ..+.  .+...   ...+.    .+. .+..+. .+..+.   .+.  .+..+.  ..+..  .@.    .@.     .+.   ....   .+.    ..+.  ",
" .++.  .++++. .++++. .+++.     .+. ..++.   .++.    .+.   .++.  .++.    .+.   .+.       .+.        .+.       .   ",
"  ..    ....   ....   ...       .    ..     ..      .     ..    ..      .     .         .          .            ",
"  ..    ..     ...     ..    ..     ....   ....    ..    .  .   ...    ....   .  .   .      .. .   .. .    .    ",
" .@#.  .@@.   .@@#.   .@#.  .@@.   .@@##. .@@##.  .@#.  .@..#. .@##.  .@@##. .@..#. .#.    .@@.#. .@#.#.  .@.   ",
".@..#. .@.#.  .@..#. .@..@. .@.#.  .@...  .@...  .@..@. .@..#.  .@.    ...@. .@..@. .@.    .@.@.@..@.@@. .@.#.  ",
".+..@. .+..@. .+..@. .+. .  .+..@. .@...  .+..   .+. .  .+..@.  .@.      .@. .@..@. .+.    .+.@.@..+..@. .+..@. ",
".+..@. .+..@. .++@.  .+.    .+..@. .++@.  .++@.  .+...  .+++@.  .+.      .@. .++@.  .+.    .+...@..+..@. .+..@. ",
".+.+@. .++@@. .+..@. .+.    .+..@. .+...  .+..   .+.@@. .+..@.  .+.    . .@. .+..@. .+.    .+. .@..+..@. .+..@. ",
".+...  .+..@. .+..+. .+...  .+..+. .+..+. .+.    .+..+. .+..@.  .+..  .+..+. .+..@. .+...  .+. .@..+..@. .+..+. ",
" .++.  .+..+. .+++.   .+++. .+++.  .++++. .+.     .+++. .+..+. .++++.  .++.  .+..+. .++++. .+. .+..+..@.  .++.  ",
"  ..    .  .   ...     ...   ...    ....   .       ...   .. .   ....    ..    .  .   ....   .   .  .  .    ..   ",
" ..      .     ..      ...   ....   .  .   .  .   .   .  .  .   .  .   ....    ..            ..     .           ",
".@@.    .@.   .@@.    .@##. .@@##. .#..#. .#..#. .@. .#..#..#. .#..#. .@@##.  .##.   .      .##.   .#.          ",
".@.#.  .@.#.. .@.#.  .@...   .@..  .@..@. .@..@. .@. .@..@..@. .@..@.  ...@.  .@.   .#.      .@.  .+.@.         ",
".+..@. .@..@. .+..@. .@..    .+.   .+..@. .+..@. .+. .@..+..@. .+..@.   ..@.  .+.    .@.     .@.   . .          ",
".+..@. .+..@. .+..@.  .+@.   .+.   .+..@. .+..@. .+...@. .+@.   .++@.  .+@.   .+.     .+.    .+.                ",
".++@.  .+..@. .++@.    ..@.  .+.   .+..@. .+.@.  .+.+.@..+..@.  ...+. .+..    .+.      .+.   .+.                ",
".+..   .+..+. .+..@.  ...+.  .+.   .+..+. .+.+.  .+.+.@..+..@.   ..+. .+...   .+.       .    .+.          ....  ",
".+.     .+++. .+..@. .+++.   .+.    .++.  .++.   .++.++..+..+.  .++.  .++++.  .++.          .++.         .++@#. ",
" .       ...   .  .   ...     .      ..    ..     .. ..  .  .    ..    ....    ..            ..           ....  ",
"  .                                                                                                             ",
" .#.           .                .           ..           .       .       .    .      ..                         ",
"  .@.     ..  .#.      ..      .#.   ..    .@#.    ...  .#.     .#.     .#.  .#. .  .@#.    .. .   ..      .    ",
"   .     .@#. .@@.    .@#.    .@#.  .@#.  .@..@.  .@##. .@..    ..      ..   .@..#.  .@.   .@@.#. .@#.    .@.   ",
"        .@.@. .+.#.  .@..#.  .@.@. .@..#. .+. .  .+..@. .+@#.  .@#.    .@#.  .+@@.   .@.   .@.@.@..@.@.  .@.#.  ",
"       .+..@. .+..@. .+. .  .+..@. .+@@@. .+@.    .+@@. .+..@.  .@.     .@.  .+..@.  .+.   .+...@..+..@. .+..@. ",
"       .+..@. .+..@. .+...  .+..+. .+...  .+.     ...+. .+..@.  .+..   ..+.  .+..@.  .+.   .+. .@..+..@. .+..@. ",
"        .+++. .+++.   .+++.  .+++.  .+++. .+.    .+++.  .+..+. .++++. .++.   .+..+. .+++.  .+. .+..+..+.  .++.  ",
"         ...   ...     ...    ...    ...   .      ...    .  .   ....   ..     .  .   ...    .   .  .  .    ..   ",
"                                                                                .     .      .                  ",
"                             .                                                 .#.   .#.    .#.     . .         ",
" ..       ..    ..     ...  .#.     .  .   .  .   .   .  .  .   .  .   ....   .@.    .@.     .@.   .@.#.        ",
".@@.     .@#.  .@#.   .@##. .@..   .#..#. .#..#. .#. .#..#..#. .#..#. .@@##.  .@.    .@.     .@.  .+.@.         ",
".+.#.   .@.@. .@..@. .+...  .+@#.  .@..@. .@..@. .@. .@..@..@. .@..@.  ...@. .@.     .+.      .@.  . .          ",
".+..@. .+..@. .+. .   .+@.  .+..   .+..@. .+..@. .+...@. .+@.   .++@.  .+@.   .+.    .+.     .+.                ",
".++@.   .+++. .+.     ...+. .+...  .+..@. .+.+.  .+.+.+..+..@.   ..+. .+...   .+.    .+.     .+.                ",
".+..     ..+. .+.    .+++.   .+++.  .+++. .++.   .++.+. .+..+.   .++. .++++.   .+.   .+.    .+.                 ",
" .         .   .      ...     ...    ...   ..     .. .   .  .     ..   ....     .     .      .                  "};
