/* XPM */
static const char * frame_edge_xpm[] = {
"12 12 3 1",
" 	c #3A2613",
".	c #4D3319",
"+	c #604020",
" ...........",
".++++++++++ ",
".++++++++++ ",
".++  ++  ++ ",
".++  ++  ++ ",
".++++++++++ ",
".++++++++++ ",
".++  ++  ++ ",
".++  ++  ++ ",
".++++++++++ ",
".++++++++++ ",
".           "};
