/* XPM */
static const char * icon16_xpm[] = {
"16 16 18 1",
" 	c None",
".	c #811909",
"+	c #8D1B0A",
"@	c #981D0A",
"#	c #A4200B",
"$	c #AB2B0C",
"%	c #B72E0C",
"&	c #BE390D",
"*	c #C6450D",
"=	c #CD510E",
"-	c #D56411",
";	c #DE7714",
">	c #E68B17",
",	c #EF9E1A",
"'	c #EFAA1A",
")	c #EFB71A",
"!	c #EFC31A",
"~	c #EFD01A",
".+##++####++##+.",
"+%*%#&*==*&#%*%+",
"#*@$=->,,>-=$@*#",
"#%$-,''~~'',-$%#",
"+#=,~~!~~'!~,=#+",
"+&-'~~~~~~,~'-&+",
"#*>'!~~~~~!,'>*#",
"#=,~~~~'~~!,~,=#",
"#=,~'!'))!,,~,=#",
"#*>',)~,,,;''>*#",
"+&-'!,,,--,~'-&+",
"+#=,~~,,,'~~,=#+",
"#%$-,''~~'',-$%#",
"#*@$=->,,>-=$@*#",
"+%*%#&*==*&#%*%+",
".+##++####++##+."};
