/* XPM */
static const char * icon64_xpm[] = {
"64 64 213 2",
"  	c None",
". 	c #7B1303",
"+ 	c #7B130B",
"@ 	c #7C1504",
"# 	c #841309",
"$ 	c #7D1605",
"% 	c #771809",
"& 	c #7F1707",
"* 	c #801808",
"= 	c #86160B",
"- 	c #8F1408",
"; 	c #881705",
"> 	c #811A09",
", 	c #891806",
"' 	c #821B0A",
") 	c #91170A",
"! 	c #8A1A07",
"~ 	c #92180B",
"{ 	c #8B1B08",
"] 	c #A2140D",
"^ 	c #8D1C09",
"/ 	c #931A0C",
"( 	c #951B05",
"_ 	c #A51706",
": 	c #9D190A",
"< 	c #A61907",
"[ 	c #9E1B0B",
"} 	c #AF160C",
"| 	c #9F1C0C",
"1 	c #A81A08",
"2 	c #B0180D",
"3 	c #A01E0D",
"4 	c #A91C09",
"5 	c #B11A06",
"6 	c #A21F06",
"7 	c #AA1D0A",
"8 	c #A42107",
"9 	c #AB1F0B",
"0 	c #B41D08",
"a 	c #AC200D",
"b 	c #B51E09",
"c 	c #AE210E",
"d 	c #B6200A",
"e 	c #AF2305",
"f 	c #B7210B",
"g 	c #A9260C",
"h 	c #B22508",
"i 	c #B9230C",
"j 	c #B32709",
"k 	c #B4280A",
"l 	c #B5290B",
"m 	c #B72A0C",
"n 	c #B82C0D",
"o 	c #B92D04",
"p 	c #B92D0E",
"q 	c #BC2F06",
"r 	c #BD3008",
"s 	c #BE3209",
"t 	c #C0330A",
"u 	c #C2350C",
"v 	c #C13C0E",
"w 	c #C23D0F",
"x 	c #C43E05",
"y 	c #C43E10",
"z 	c #C64007",
"A 	c #C9420A",
"B 	c #CA430C",
"C 	c #C7470A",
"D 	c #C8480C",
"E 	c #C94A0D",
"F 	c #CA4B0F",
"G 	c #CC4C10",
"H 	c #CD4D04",
"I 	c #CE4E06",
"J 	c #D04F07",
"K 	c #CC5206",
"L 	c #CD5307",
"M 	c #CE5409",
"N 	c #D0550B",
"O 	c #D1560C",
"P 	c #D2570E",
"Q 	c #D3580F",
"R 	c #D05C0E",
"S 	c #D15D0F",
"T 	c #D25E11",
"U 	c #D56005",
"V 	c #D45F12",
"W 	c #D66107",
"X 	c #D46507",
"Y 	c #D56609",
"Z 	c #D6670B",
"` 	c #D8680D",
" .	c #D9690F",
"..	c #DA6A10",
"+.	c #D86D11",
"@.	c #D96E12",
"#.	c #DA6F14",
"$.	c #E27B13",
"%.	c #DF7F13",
"&.	c #E08015",
"*.	c #E18116",
"=.	c #E4830A",
"-.	c #E6840C",
";.	c #E78A12",
">.	c #E88B14",
",.	c #E98C16",
"'.	c #E58E15",
").	c #EA8D17",
"!.	c #E68F16",
"~.	c #E79118",
"{.	c #EA930A",
"].	c #E99219",
"^.	c #EA931B",
"/.	c #EC940D",
"(.	c #ED950F",
"_.	c #EE9611",
":.	c #EF9713",
"<.	c #F19815",
"[.	c #EC9A14",
"}.	c #F29917",
"|.	c #EE9B15",
"1.	c #EF9C17",
"2.	c #F09D19",
"3.	c #F19E1A",
"4.	c #EDA01A",
"5.	c #F39F1C",
"6.	c #F0A20B",
"7.	c #EEA11B",
"8.	c #F1A30E",
"9.	c #F0A21D",
"0.	c #EDA50C",
"a.	c #F3A410",
"b.	c #EEA60F",
"c.	c #F4A512",
"d.	c #F0A711",
"e.	c #F5A614",
"f.	c #F1A813",
"g.	c #F2AA15",
"h.	c #EEAC14",
"i.	c #F3AB17",
"j.	c #EFAD16",
"k.	c #F0AE18",
"l.	c #F1AF19",
"m.	c #EDB118",
"n.	c #EEB21A",
"o.	c #EFB31C",
"p.	c #F0B911",
"q.	c #EDBC12",
"r.	c #EEBD14",
"s.	c #F0BE16",
"t.	c #F1BF18",
"u.	c #EFC302",
"v.	c #EBC500",
"w.	c #EDC219",
"x.	c #F0C406",
"y.	c #ECC603",
"z.	c #EFC31B",
"A.	c #EDC707",
"B.	c #F0C41D",
"C.	c #EFC800",
"D.	c #EEC80B",
"E.	c #EBCB00",
"F.	c #EFC90E",
"G.	c #EBCB0C",
"H.	c #EDCC00",
"I.	c #F1CA11",
"J.	c #EECD00",
"K.	c #EFCE00",
"L.	c #EDCD12",
"M.	c #F0CF00",
"N.	c #EECE14",
"O.	c #F0CF17",
"P.	c #F1D019",
"Q.	c #ECD218",
"R.	c #EFD400",
"S.	c #EDD31A",
"T.	c #F0D504",
"U.	c #EBD702",
"V.	c #EED41C",
"W.	c #EDD806",
"X.	c #EFD52C",
"Y.	c #EED90A",
"Z.	c #F1D620",
"`.	c #F0D62D",
" +	c #F1D72F",
".+	c #F1D73A",
"++	c #F2D93B",
"@+	c #F1D944",
"#+	c #F1DA4E",
"$+	c #F3DB47",
"%+	c #F2DB4F",
"&+	c #F5DC48",
"*+	c #F0DE47",
"=+	c #F5E273",
"-+	c #F5E37B",
";+	c #F6E47C",
">+	c #F7EDA4",
",+	c #F8EEA5",
"'+	c #F6EEAB",
")+	c #F7F0B4",
"!+	c #FCEFB4",
"~+	c #FBF0BB",
"{+	c #FCF7D4",
"]+	c #FDF8D5",
"^+	c #FAF9DC",
"/+	c #FFF8E3",
"(+	c #FFF9E4",
"_+	c #FDFAEA",
":+	c #FCFBF2",
"<+	c #FFFBEB",
"[+	c #FBFDFA",
"}+	c #FCFFFB",
"|+	c #FEFFFC",
"> > > * & & * & @ , 7 7 = = 7 9 { & & & & & * & $ ! < 0 0 < ; . . ; < 0 0 < ! $ & * & & & & & { 9 7 = = 7 7 , @ & * & & * > > > ",
"> > > * & > , ! = / 7 7 ^ ^ 8 9 ( ' > & & > , ! = / 8 c c 8 ~ = = ~ 8 c c 8 / = ! , > & & > ' ( 9 8 ^ ^ 7 7 / = ! , > & * > > > ",
"> > > & @ ' | g 6 < 7 5 < 7 a a 0 3 ' % + ' | g 8 ] c 2 2 a 8 6 3 ] c 2 2 9 g 7 7 | ' % % ! 3 e 2 5 7 3 7 9 8 3 8 | = @ & > > > ",
"* * & > ' / 7 f i p n l p n j 2 a 6 / , ; / 7 f i j n p n l p p r o p n p l b c c 7 / = , ^ 3 a c c o o n n p o i 7 ( ' > & * > ",
"& & @ = | 7 9 l w K F I F w p 6 ^ ^ 3 8 < < 9 2 2 j w F D D B B D D D E F w l 5 5 e 7 ] a 6 ^ ^ 8 i w I H F B w l 7 9 [ = @ & > ",
"& > ' / 7 j k p K K K D I B r ] = { 7 i p p l l j o K M K K N K K K R F R D v c l k n p i 3 { ^ < p B F D I P F v j d 7 ( ' > * ",
"* = 6 7 2 d C F N F v l n n k j 6 3 7 k C D D E F w F F F F F F F F I D K D D F D D H w l 7 _ 3 a c n p p v K K F v j 7 9 | , & ",
"& ^ 8 k a v F M F x 8 ] 6 < 9 a i i k p D N M K G P T X V T T V U T T U T R R G K K K F r l n p k a 6 6 [ 8 v G N F v k f g = $ ",
"@ = < o w F M I v c ^ # > { < n C D D D F F G K F R $.^.^.].].'.'.'.'.'.^.$.T F K K F F D D F w l ] - # = ^ c v K K F w o 8 ' . ",
"= / 7 p F R F v a | ^ > # ~ g p D M K K U T M G R #.~.i.a.5.5.5.5.9.4.c.i.~.#.N G G U T M K I H v e ^ > ' - | e v G N H i 7 / = ",
"g 7 2 o D K v g ( ^ | 3 3 a w F F F F R ;.*.P K &.~.5.4.4.2.1.3.2.3.1.2.9.2.~.*.N N *.*.T F D F F w a ] 8 ( ^ ) g p F F n e a 7 ",
"< 8 9 l H D k 6 & # 8 i f v F R T T R #.^.^.+.+.~.9.5.5.9.h.h.h.9.9.9.9.3.9.9.^.+.+.|.1.#.T T T R D v l i 7 ' > ] o F F n 2 8 8 ",
"= ^ 3 l F F i 3 ' # 6 l v H B Q -.].'.^.3.|.).^.4.4.^.9.q.B.w.w.I.G.G.q.4.1.9.1.'.'.|.<.'.'.{.%.R B H w l ] # ' 3 r K K l 7 / = ",
"= ( 7 p C z p < { ^ 9 r H K R #.~.9.9.9.h.9.9.4.3.4.9.o.w.V.Z.V.X.X.Z.w.o.4.3.3.5.9.9.9.d.c.9.^.+.R K F s g ^ ^ 8 l w w p ] ^ ; ",
"8 7 a a p o c e ] g v D F P =.~.5.3.2.4.z.z.9.^.}.9.z.O.X.S.S.O.P.S.V.P.B.w.9.1.^.9.w.t.9.}.3.|.^.&.R D F x e ] a j p n k e 8 8 ",
"9 9 j 2 6 ] a 2 n s F N R #.^.l.9.b.9.o.O.O.o.9.4.9.w.V.O.O.O.Q.O.O.P.Z.Z.w.h.3.9.o.X.O.o.9.9.9.i.^...Q N F p n j a < < a 2 a a ",
"{ ~ c a ^ ^ 3 n w F F T &.^.}.i.z.G.B.w.X.P.L.o.9.9.w.V.P.O.L.Q.O.O.X.V.Z.w.9.9.z.I.Q.Q.w.G.G.t.9.4.~.-.T I F w i 3 ! ) a a ( = ",
"& ; 6 3 ^ ^ < o I N F T ^.9.2.h.w.Z.Z.V.L.Q.V.G.m.m.D.Q.Q.O.O.G.X.X.L.O.O.s.9.9.s.O.P.P.Z.P. +G.h.2.f.~.T F I H p < { { 6 3 ' $ ",
"& ' ! ^ 3 7 } c D M D T ].9.^.9.w.Z.P.O.X.O.P.G.u.u.I.L.Q.X.O.L.G.O.Q.w.m.4.2.^.9.n.O.V.V.V.V.z.9.^.9.].T F G D l 7 8 3 ( = ' & ",
"% % % ! a c e v D N R #.^.9.9.o.I.S.X.Q.G.X..+%+*+%+#+@+X.G.X.O.X.Q.V.w.j.4.h.9.1.4.q.L.O.P.P.w.o.f.9.].#.R R E p d i 8 ' $ & > ",
"' > + ; 8 p v D F T ;.^.5.9.B.O.O.L.O.O.C..+,+/+]+^+_+~+$+H.Q.G.O.X.Q.O.w.w.B.z.9.^.9.o.w.Z.V.P.O.z.9.|.^.*.T I F w p 8 ' % & > ",
"& > ' ^ 7 l H M F U &.|.4.9.t.L.Q.Q.O.O.X.=+<+[+|+|+[+!+.+G.L.P.O.I.X.P.Z. +Y.w.k.}.^.9.w.Z.V.X.L.z.f.1.1.*.T F M F p ] / ' > * ",
"* { 3 7 a k D N F M N  .^.9.9.m.w.Z.Q.@+>+/+|+|+|+:+-+.+P.O.X.Q.Q.L.P.Q.Q.S.Z.B.9.^.}.l.G.Z.V.w.n.9.9.'.+.N K K M D p e a | , & ",
"* = a 2 5 l D M K G M +.].9.2.4.s.G.G.@+/+[+[+|+_+>+X.A.O.Q.L.L.L.O.O.X.@+@+V.w.o.4.2.9.t.B.I.t.4.1.4.^. .N G G K D l 2 d 9 = $ ",
"* , g c a j D G F N $.~.3.2.^.2.2.j.u.*+{+[+[+/+=+X.O.O.O.O.O.O.X.Q.D.@+~+)+.+L.I.s.4.1.9.j.h.9.1.^.5.1.~.&.Q F K D l 2 j g ' @ ",
"{ ^ 7 f j p D P T #.~.9.4.4.9.9.4.h.u.$+]+|+:+,+X.A.L.X.G.X.X.Q.L.G.H.#+<+[+;+.+Z.w.o.4.5.^.^.4.9.d.4.4.i.~.#.P M D p c 0 < / ' ",
"7 3 a l C E F T *.~.9.5.^.9.z.w.B.w.G.%+<+|+-+X.O.O.L.O.L.G.P.S.P.O.I.#+/+[+|+)+*+O.L.t.9.3.^.i.z.t.4.^.9.4.~.*.T F K w l e 9 8 ",
"2 d e l w R F W ^.i.9.4.9.o.G.Z.Z.V.L.@+~+!+.+I.O.Q.O.X.P.P.w.B.O.Q.H.@+'+/+:+~+@+Q.V.G.l.^.^.k.w.O.o.9.5.5.i.).X K K F n 2 c b ",
"2 a a n D K F V ).9.5.9.s.w.V.P.P.O.O.S.@+.+O.L.O.O.L.O.V.O.o.h.z.S.O.P.@+$+%+@+O.S.Z.B.l.^.}.l.w.Z.O.q.9.3.9.).T F K D k a 2 d ",
"8 9 a n w M G V ].9.2.j.G.Z.P.Q.Q.Q.Q.O.C.I.Q.Q.O.Q.O.X.O.o.2.4.z.S.O.Q.H.G.O.I.O.X.O.t.4.3.3.9.w.Z.Z.w.h.2.9.'.T G K D l 5 g 8 ",
"= ~ 8 o D N G T ).4.}.4.w.Z.O.O.O.O.S.V.Q.L.O.X.O.V.R.w.o.4.^.9.B.S.O.Q.O.Q.Q.L.S.w.o.4.9.2.2.j.w.V.Z.B.h.3.9.].V F K D n ] / ; ",
"@ ; _ p D K G T ].9.5.k.w.Q.X.O.O.P.w.w.L.P.O.L.w.B.w.t.9.}.9.o.I.V.S.O.O.L.L.X.I.t.4.1.3.2.1.9.w.V.Z.w.9.1.5.).V G K D p 8 = % ",
"% = 3 n D N G T ).4.1.h.B.O.Q.X.V.L.n.l.w.Z.V.w.n.9.h.4.4.9.s.G.X.P.S.S.O.P.R.L.o.9.3.1.4.^.4.j.B.V.Z.w.h.3.4.].V F K D i 8 = % ",
"! ^ 7 n D K G T ].9.2.9.w.V.O.I.O.o.3.5.s.L.V.w.k.9.^.3.^.l.w.V.D.B.B.w.O.S.B.o.9.^.2.5.3.4.2.9.w.V.Z.w.9.1.9.).V F K D p ] ( ; ",
"7 7 9 l D N G T ).4.3.j.w.Z.V.w.o.9.4.^.5.l.w.V.B.t.4.^.^.l.B.P.o.9.9.o.O.P.o.9.4.4.4.4.3.^.2.9.w.Y.Z.L.h.3.4.].V F K F p 9 7 8 ",
"0 a 2 c D K G V ^.9.4.9.w.O.V.w.9.^.|.4.9.n.L.Z.Z.X.l.9.9.9.z.z.9.2.^.9.s.w.9.1.3.1.^.'.^.4.9.o.O.X.O.q.4.3.9.'.V G K D l a a b ",
"d j e c G Q G T ^.9.9.|.4.o.P.O.k.^.}.9.t.B.Z.V.O.P.B.t.9.4.9.9.4.2.3.4.4.h.2.4.9.^.V  .'.l.B.O.V.w.o.4.2.9.e.^.V F K F l 2 2 d ",
"3 ] a n w F G V *.~.5.5.^.4.w.B.9.^.4.9.z.O.w.D.O.Z.Y.B.l.^.1.2.2.4.4.4.3.1.4.3.^.*.V V ).i.B.w.I.s.4.1.4.5.^.*.T F D C l a g 8 ",
"^ / 8 k j p F P T #.~.i.9.1.9.9.4.^.5.4.9.j.9.m.B.Z.Y.B.n.^.2.1.^.5.9.9.5.9.9.|.+.V *.^.^.4.9.9.h.9.3.3.9.^.#.T P D p j j ] / ; ",
"& { a 2 9 l D K F R &.^.2.4.2.5.i.9.4.1.2.1.^.9.z.O.O.t.9.2.2.4.9.4.^.'.'.^.^.%.T +.~.9.l.9.j.9.^.1.4.4.~.&.R F K D k 9 b g = % ",
"& ! a f a k D K G K N +.'.4.^.9.B.B.9.^.^.5.3.3.9.9.k.9.4.4.1.5.9.^.#.T T T N V &.~.5.9.B.w.O.s.4.^.5.^.+.N G G K D l 2 d g { $ ",
"> ' 3 ] e l D G N F N Z ^.9.9.o.O.O.o.9.4.3.1.1.1.2.1.2.4.^.4.4.(.&.N D D F K #.^.9.2.h.L.Z.V.L.o.9.9.^.+.N M M K D l a 7 6 = & ",
"> ' , / 8 n F J G V *.^.5.9.w.O.X.P.O.s.4.~.1.^.4.1.^.4.4.4.5.]. .K D B D N $.^.5.2.).9.w.Z.S.X.P.B.9.}.^.*.T G K F o < ) , > * ",
"& & % = ] l C F G V *.2.3.9.z.L.L.S.Z.B.o.j.9.4.5.4.4.5.5.5.9.~.V P T T R #.~.i.k.9.9.o.w.V.P.L.O.z.k.^.3.*.T F F x n 3 = % + > ",
"& > $ ! g b l p F P T #.^.9.9.l.w.V.V.P.B.w.O.z.4.^.4.4.4.4.4.1.'.'.'.;.*.^.^.9.B.L.L.w.X.P.P.w.m.9.9.^.#.T P D p k i 8 = & & > ",
"& > ' ^ 3 ] 9 n D K D T ].9.2.9.w.V.V.S.Z. +Z.w.l.5.^.|.|.1.3.4.9.5.9.9.l.i.4.k.w.Z.Z.V.O.V.Z.w.9.1.c.'.T B K E n 7 7 3 ( ' > & ",
"% { 3 3 ^ ^ 3 l F K F T ^.9.5.h.w.Z.P.S.S.V.Z.w.k.1.^.}.1.^.1.1.1.2.1.9.B.t.4.9.O.Z.V.P.S.V.Z.G.9.1.9.(.V F K F i 3 ^ = 8 ( { . ",
"^ / c e ^ ! < n w F F T *.~.2.9.z.O.w.w.O.X.O.t.9.5.9.l.9.j.9.9.h.9.9.o.O.O.i.4.q.G.O.Q.w.w.G.t.9.2.^.&.T F D C n < ^ ^ c 2 / ' ",
"g a a a ] 3 a j i v F Q T #.^.i.9.h.9.o.G.O.n.4.2.9.z.O.w.w.B.w.w.w.w.B.Z.L.h.^.5.o.I.X.o.9.h.9.l.^.#.T R F p l c a 8 8 c j a 7 ",
"7 g 2 k r o j 9 3 8 w F D T *.^.2.2.2.9.t.w.9.1.4.9.w.O.Z.Z.Z.Z.Z.Z.Z.X.O.o.4.1.1.9.z.s.9.3.1.3.^.&.T H D v e ] e l i p k 9 9 8 ",
"; ^ 7 l w w p 7 ) ^ g s D P T #.^.9.9.9.9.h.9.2.4.1.4.n.O.Z.Z.Z.Z.Z.Z.G.o.4.4.2.4.9.9.h.9.5.9.^.#.Q K F v 8 ( = ] p w w p < / = ",
"# ( ] p G G o | > ; ] l w F D P *.^.].^.5.^.).'.2.4.1.4.w.w.A.w.w.G.w.s.4.1.5.4.^.].5.^.^.].^.*.T D F x d 3 * ' 6 r I G p 8 ^ ; ",
"3 a a p F B o ] & > < i k s F Q T T T #.|.1.+.+.^.9.4.|.9.h.h.h.9.j.9.9.4.5.4.^.+.+.^.2.#.T V U N F p l i ] , # ] p F H n e 8 8 ",
"9 9 5 o I M p e ~ { 3 8 ] g v F G F D T *.*.P G &.~.3.4.4.5.^.}.4.1.4.4.5.4.~.&.G N *.*.T F F F F v e ] 8 6 ^ ^ 8 v K D n } 9 a ",
", ^ ] p F P F v e ( ) ' # ^ g u F M K P T T M K T #.^.9.9.9.9.5.9.5.5.9.9.^.#.T G N V T M N I F p g ^ # ' { | j v F N F l ] / ! ",
"% = 8 n w F R K v c ^ # > - _ l x F D D F G G G D T *.^.].].].].).].].^.^.*.T F M G G F D D F C n 3 ^ ' > ~ a v F N F x p 7 , + ",
"> ^ 8 l l o F N K x e | 3 3 9 c l n k p F P P K G Q V T T T T T T T V X V T N G N P J D p l l l f 9 6 ] | e v K N K p l j 8 ! $ ",
"* = 3 7 a c w F N F p n o r c j ] ] 7 l z F D D F D F G I F F G F F G F G F D F D D F C l 7 ] < a d i o p p F K K v l a 7 3 , & ",
"> ' ; ( a k l v F R K F F B l 8 ^ { 7 f l l l k c v F N N N N N N N G P N F p g l l l o d 9 ^ ! 3 p w K I K N F v j d 7 ^ ' > * ",
"& & + = ( 7 2 2 C F D F F w p < ~ = 3 3 < 7 a a e c x F D D D D D D F D F w l 5 a 9 7 3 3 ( { ^ 7 p D F F F F x c } 7 | ! + & > ",
"* * > ' = ^ a b o n n p v f c a e 8 ( ' ' / a 2 i c l l k l l p p l l k n l c i d 7 / , { ^ 3 a e a l n l n p o j 7 ( ' ' & * > ",
"> > > * $ = ( 8 ] < < e ] 8 a j a 3 ' + + = | a 8 g 9 a a 9 7 _ ] 7 9 a a 9 9 8 g ( , % + = 3 e 2 2 7 6 9 e 8 ] 7 | ' + * > > > ",
"> > > * > ' = ^ ' ( ] a ~ ( 7 a / ! ' > & > , { ; / 7 0 2 8 ~ ! ; ^ 7 0 j 8 / = = ' = > > ' ' / g 7 ~ ^ < 9 ( ' ! = ' & * > > > ",
"> > > > > ' > * * = a 8 ; ' 8 8 { % * > > > % + + ; 8 2 l 3 ' % % ! 6 j 2 8 , * > > > > > > @ { a 8 ' ; g 9 = $ $ > > > > > > > "};
