/* XPM */
static const char * icon32_xpm[] = {
"32 32 7 1",
" 	c None",
".	c #811909",
"+	c #B0220C",
"@	c #CD510E",
"#	c #EF9E1A",
"$	c #EFD01A",
"%	c #FFFFFF",
".....+.+.....++..++.....+.+.....",
"...++++++..++++++++++..++++++...",
"..++@@@+.++++@@@@@@++++.+@@@++..",
".++@@+++++@@@@@@@@@@@@+++++@@++.",
".+@@+..+@@@@@######@@@@@+..+@@+.",
"++@+.++@@@#@########@#@@@++.+@++",
".+@+.+@@######$$$$######@@+.+@+.",
"+++++@@###$##$$$$$$##$###@@+++++",
".+.+@@##$$$$#$$$$$$#$$$$##@@+.+.",
"..++@@##$$$$$$$$$$###$$$##@@++..",
"..+@@##$$$$%%%$$$$$$##$$$##@@+..",
".++@@@##$$%%%$$$$$$$##$$##@@@++.",
".++@@####$%%$$$$$$%$$######@@++.",
"++@@###$$$%$$$$$$$%%$$##$###@@++",
"++@@##$$$$$$$$$#$$$$$$##$$##@@++",
".+@@##$$$$$$$$##$$$$$###$$##@@+.",
".+@@##$$$#$$###$$$$$####$$##@@+.",
"++@@##$$###$$##$##$#####$$##@@++",
"++@@###$##$$$$#######@#$$###@@++",
".++@@#######$$######@######@@++.",
".++@@@##$########@@@##$$##@@@++.",
"..+@@##$$$######@@@###$$$##@@+..",
"..++@@##$$$$########$$$$##@@++..",
".+.+@@##$$$$######$#$$$$##@@+.+.",
"+++++@@###$##$$$$$$##$###@@+++++",
".+@+.+@@######$$$$######@@+.+@+.",
"++@+.++@@@#@########@#@@@++.+@++",
".+@@+..+@@@@@######@@@@@+..+@@+.",
".++@@+++++@@@@@@@@@@@@+++++@@++.",
"..++@@@+.++++@@@@@@++++.+@@@++..",
"...++++++..++++++++++..++++++...",
".....+.+.....++..++.....+.+....."};
