/* XPM */
static const char * stat_xpm[] = {
"22 19 14 1",
" 	c None",
".	c #1A1A1A",
"+	c #C20000",
"@	c #990099",
"#	c #FE00FF",
"$	c #4546FF",
"%	c #994D00",
"&	c #009901",
"*	c #FF5858",
"=	c #FF8000",
"-	c #8B8BFF",
";	c #C1C200",
">	c #00FF01",
",	c #FEFF00",
" .................... ",
".&>>>>>>>>>>>>>>>>>>&.",
".&&&&&&&&&&&&&&&&&&&&.",
" .................... ",
".+******************+.",
".++++++++++++++++++++.",
" .................... ",
".%==================%.",
".%%%%%%%%%%%%%%%%%%%%.",
" .................... ",
".@##################@.",
".@@@@@@@@@@@@@@@@@@@@.",
" .................... ",
".$------------------$.",
".$$$$$$$$$$$$$$$$$$$$.",
" .................... ",
".;,,,,,,,,,,,,,,,,,,;.",
".;;;;;;;;;;;;;;;;;;;;.",
" .................... "};
