/* XPM */
static const char * step_xpm[] = {
"53 23 7 1",
" 	c None",
".	c #3D2000",
"+	c #4C2800",
"@	c #663300",
"#	c #804000",
"$	c #994D00",
"%	c #B25900",
"                                                     ",
"      %%$    $$      $%%$      $%%    $$        $$   ",
"    %%++@$  %+@$    $@++@$    $@++%  $@@$      %@@$  ",
"   %+..+@$ %+.++%   $+..+$    $+..+$ %++$      %++$  ",
"  $+..+$$  %+...+%  $@+..%    $+.+@$ %+.+$$$  %@+#   ",
" $@+.+$    $@++..%   $@..%  $$+..+$   %..++@$ %+.#   ",
" $+..+$     $$$+.+%   #.+% $@+..+%    %+...+% %..@$  ",
"  %++@$        $++%   #+@% $@++%%      %++.+% %..+@$ ",
"   %%$         $@@$  $++%   $%%         $@+%  $+..+$ ",
"                $$   $@@%                $$   $@++@$ ",
"                      $$                       $%%$  ",
"                                                     ",
"     $$    $%%        $$        $$    %%$      $%%$  ",
"    $@+%  $@++%%     $@@%      $@@$  %++@$    $@++@$ ",
"   %++.+% $@+..+%    $++%      $++% $+..+$    $+..+$ ",
"  %+...+%  $$+..+$    #+@%  $$$+.+% $@+.+$    %..+@$ ",
"  %..++@$    $+.+@$   #.+% $@++..%   $+..+$$  %..@$  ",
" %+.+$$$     $+..+$  $@..% %+...+%    %+..+@$ %+.#   ",
" %++$        $@++%  $@+..% %+.++%      %%++@$ %@+#   ",
" $@@$         $%%   $+..+$  %+@$         %%$   %++$  ",
"  $$                $@++@$   $$                %@@$  ",
"                     $%%$                       $$   ",
"                                                     "};
