/* XPM */
static const char * unit_sprite_xpm[] = {
"151 81 17 1",
" 	c None",
".	c #1A1A1A",
"+	c #3C2616",
"@	c #611F05",
"#	c #3D3333",
"$	c #4E321D",
"%	c #912F08",
"&	c #4B3F3F",
"*	c #684227",
"=	c #3B5214",
"-	c #615151",
";	c #4E691B",
">	c #9E532E",
",	c #666666",
"'	c #C66839",
")	c #808080",
"!	c #FFAA00",
"                                                      ...         ..              .     ..                           ...                               ",
"          .                                ..         .-&.       .$$.            .#.   .&&.                         .$$$.          ..   ..             ",
"         .-.                              .**.        .&-&.     .$$*$.           .&.  .&&-&.                       .$**$$.        .&&...$$.            ",
"    ..   .-#.    ..            ..        .*... ..      .&'.     .'>$*.           .-.  .'>&-.                      .$*$+$$.       .&,,&&&&$...    ...   ",
"   .**.  .&-.   .$$.     .    .&&.      .*.   .$$.      .>'.    .>'$$.           .&&. .>'&&.                      .$*$$$$.       .&)),&))&&&&.. .+@@.. ",
"  .*'**. .#&.  .$$*$.   .#.  .&&-&.    .*$.  .$$*$.      .>'.   .$>>$.           .#&. .$>>$.                      .$$*$$.       .&)),&))&,),,&&..+%%@@.",
"  .'>'*.  .'.  .'>$*.   .&.  .'>&-.    .*.   .'>$*.     . .>'.  .+$$*.        . ..#-. .&&&-.                      .$$$$.        .&))&,))&,))),&..+@%%@.",
"  .>''*.  .'.  .>'$$.   .-.  .>'&&.   .*$.   .>'$$.    .&.-.>'..$$*$*$.      .$.*..&&.&--#&$.                    .$*$..         .&)&,)))&))))&$..++@@. ",
"  .$>>$.  .>.  .$>>$.   .&&. .$>>$.   .*+.   .$>>$.    .+$&..>'.$$*$$$.      .$$$..&-.#&-&-&.                    .$*$.          .&,&,))&,))),&+$$$+... ",
"  .===;.  .'*. .+$$*.   .&&. .&&&-.   .>'*....+$$*.    .$--$..>$$$*$**$.     .$**$.#-&-#&---&.                 ..$*$+.           .&,)))&,))),&***$$$$$.",
"  .;;;;;. .'>. .*****.  .#-. .-----.  .>'**********.  .&---+$.$$$*$****$.   .$***+$.###&-----&.               .##$*$+.           .&,)),&,)))&$***$$$*$.",
" .;=;;=;. .*'..*$**$*.  .#-..-&--#-.. .*+$****$**$**. .&--&$$+&&$*$**$*$&.  .$**$$$+++#&---&-&$.            ..#$$*$.+.           .&))),&,)))&+$$$$***$.",
" .;=;;=;.  .'..*$**$$$.  .&&.-#-&&&&&..*$....$$*$+$*. .--&&-+$&&$>$****$-&. .**$$*+$$$#>&----&*$.         ..$$$*$*$.+.          .&,))),&,)))&++$$*++*$.",
" .;=;;=;.  .'..*$*$***$. .&-.-&-#---&..*$.   .$*>'*$*..&&.&--$-&$>'$**$--&$..$$.$**$*$&>'&---&*$$.  ..  ..$$$$*$*$+$+.. ..      .&))),,&,,)),&+$$*+$*$.",
" .;=;;=;.  .>.$*$$****$. .#&$-&#----&..*$.   .$$>'$**. .. .&----$**$$$----$. .. .$****&&##&&&***$. .##..$$$$**+$*$**$$$.##.     .&),,&&&&,,,,&++$*$**$.",
".>=;;;=;.  .>'>$*$**$*$. .>'>&&#--&-&..**.  .$**$$*$$.    .&---&$**$&----$$.    .$***$$**$$****$$..#$*$$$$**$$$*$+$$**$#$*#.   .&,,&&$++$&&&&&+$$***$. ",
".>'=;>'=.  .>'>.$$*$$*$. .>'>.&#-&&-&. .*.  .$$**$...     .&#--&+$*$&----$$.    .$$**$$&*$$****$$..#*$$$**$$**$*$..++$$#*&*#. .$&&&*$+$$*$+++$$***$*$. ",
" .'==>'=.   .>..$$**$*$.  .$..##--&-&. .*.  .==$$$.       .&#--&+$*$&&--&$$.    .$$**$$&*$$$**$$$..#*$*$$$.$$$$$+++$$$*#&-&#..$$$$$$$$***$+$$**$****$. ",
"  .;==>=.   .'*.*$****$.   . .*#----&.  .*..=;;===.       .&-#-&+$**$#&--$$.    .$*$*$$$**$$$**$$..#*$+**$$$.##$$$$$**+#&-&#..$********$*$$**$***$*$.  ",
"  .;=;;.    .>'.*$$**$.      .&$&--&.    .*.=;;=;=.       .&-&-&$$**$#.--&$.    .$*$*$$**$++.**$$..#*$$$+**$#$*#$$**+$$#*&*#..$*$**$*$*****$****$**$.  ",
"  .;=;;.    .*'.*$*$$.       .&$*&&.      ..=;==;;=.      .--.-&..$$##..--$.    .**.*$..$$+$..**$. .#**#$$+*#*&*#*+$$...#*$#. .$*$******$$***$$***$.   ",
"  .**;;.     .'.*$**.        .*$&*.        .**.==;=.      .--.-&. ..&#..--.     .**.*$. ..+$..**.   .##...$$#&-&#$$..   .##.  .$****$*$$****$***$$.    ",
"  .*$**.     .>.*$**.        .*$&*.        .*$..*$$.      .-&.-&. .#&&..--.     .*$.*$. .#$$..**.    ..   ..#&-&#..      ..    .$*$******$$***$$..     ",
" .**$**.      .**$**.       .**$**.       .**$..**$.     .#-&.-&. .##..#-&.    .#*$.*$. .##..#*$.          .#*&*#.             .$****$*$****$$..       ",
".**$.**.     .**$.**.      .**$.**.      .**$.  .**.     .##.#-&.  .. .##.     .##.#*$.  .. .##.            .#*$#.              .$$******$$$..         ",
" ...**$.      ...**$.       ...**$.       ...   .*$.      ...##.       ..       ...##.       ..              .##.                ..$$$$$$...           ",
"    ...          ...           ...               ..          ..                    ..                         ..                   ......              ",
"                                                      !!!         !!              !     !!                           !!!                               ",
"          !                                !!         !-&!       !$$!            !#!   !&&!                         !$$$!          !!   !!             ",
"         !-!                              !**!        !&-&!     !$$*$!           !&!  !&&-&!                       !$**$$!        !&&!!!$$!            ",
"    !!   !-#!    !!            !!        !*!!! !!      !&'!     !'>$*!           !-!  !'>&-!                      !$*$+$$!       !&,,&&&&$!!!    !!!   ",
"   !**!  !&-!   !$$!     !    !&&!      !*!   !$$!      !>'!    !>'$$!           !&&! !>'&&!                      !$*$$$$!       !&)),&))&&&&!! !+@@!! ",
"  !*'**! !#&!  !$$*$!   !#!  !&&-&!    !*$!  !$$*$!      !>'!   !$>>$!           !#&! !$>>$!                      !$$*$$!       !&)),&))&,),,&&!!+%%@@!",
"  !'>'*!  !'!  !'>$*!   !&!  !'>&-!    !*!   !'>$*!     ! !>'!  !+$$*!        ! !!#-! !&&&-!                      !$$$$!        !&))&,))&,))),&!!+@%%@!",
"  !>''*!  !'!  !>'$$!   !-!  !>'&&!   !*$!   !>'$$!    !&!-!>'!!$$*$*$!      !$!*!!&&!&--#&$!                    !$*$!!         !&)&,)))&))))&$!!++@@! ",
"  !$>>$!  !>!  !$>>$!   !&&! !$>>$!   !*+!   !$>>$!    !+$&!!>'!$$*$$$!      !$$$!!&-!#&-&-&!                    !$*$!          !&,&,))&,))),&+$$$+!!! ",
"  !===;!  !'*! !+$$*!   !&&! !&&&-!   !>'*!!!!+$$*!    !$--$!!>$$$*$**$!     !$**$!#-&-#&---&!                 !!$*$+!           !&,)))&,))),&***$$$$$!",
"  !;;;;;! !'>! !*****!  !#-! !-----!  !>'**********!  !&---+$!$$$*$****$!   !$***+$!###&-----&!               !##$*$+!           !&,)),&,)))&$***$$$*$!",
" !;=;;=;! !*'!!*$**$*!  !#-!!-&--#-!! !*+$****$**$**! !&--&$$+&&$*$**$*$&!  !$**$$$+++#&---&-&$!            !!#$$*$!+!           !&))),&,)))&+$$$$***$!",
" !;=;;=;!  !'!!*$**$$$!  !&&!-#-&&&&&!!*$!!!!$$*$+$*! !--&&-+$&&$>$****$-&! !**$$*+$$$#>&----&*$!         !!$$$*$*$!+!          !&,))),&,)))&++$$*++*$!",
" !;=;;=;!  !'!!*$*$***$! !&-!-&-#---&!!*$!   !$*>'*$*!!&&!&--$-&$>'$**$--&$!!$$!$**$*$&>'&---&*$$!  !!  !!$$$$*$*$+$+!! !!      !&))),,&,,)),&+$$*+$*$!",
" !;=;;=;!  !>!$*$$****$! !#&$-&#----&!!*$!   !$$>'$**! !! !&----$**$$$----$! !! !$****&&##&&&***$! !##!!$$$$**+$*$**$$$!##!     !&),,&&&&,,,,&++$*$**$!",
"!>=;;;=;!  !>'>$*$**$*$! !>'>&&#--&-&!!**!  !$**$$*$$!    !&---&$**$&----$$!    !$***$$**$$****$$!!#$*$$$$**$$$*$+$$**$#$*#!   !&,,&&$++$&&&&&+$$***$! ",
"!>'=;>'=!  !>'>!$$*$$*$! !>'>!&#-&&-&! !*!  !$$**$!!!     !&#--&+$*$&----$$!    !$$**$$&*$$****$$!!#*$$$**$$**$*$!!++$$#*&*#! !$&&&*$+$$*$+++$$***$*$! ",
" !'==>'=!   !>!!$$**$*$!  !$!!##--&-&! !*!  !==$$$!       !&#--&+$*$&&--&$$!    !$$**$$&*$$$**$$$!!#*$*$$$!$$$$$+++$$$*#&-&#!!$$$$$$$$***$+$$**$****$! ",
"  !;==>=!   !'*!*$****$!   ! !*#----&!  !*!!=;;===!       !&-#-&+$**$#&--$$!    !$*$*$$$**$$$**$$!!#*$+**$$$!##$$$$$**+#&-&#!!$********$*$$**$***$*$!  ",
"  !;=;;!    !>'!*$$**$!      !&$&--&!    !*!=;;=;=!       !&-&-&$$**$#!--&$!    !$*$*$$**$++!**$$!!#*$$$+**$#$*#$$**+$$#*&*#!!$*$**$*$*****$****$**$!  ",
"  !;=;;!    !*'!*$*$$!       !&$*&&!      !!=;==;;=!      !--!-&!!$$##!!--$!    !**!*$!!$$+$!!**$! !#**#$$+*#*&*#*+$$!!!#*$#! !$*$******$$***$$***$!   ",
"  !**;;!     !'!*$**!        !*$&*!        !**!==;=!      !--!-&! !!&#!!--!     !**!*$! !!+$!!**!   !##!!!$$#&-&#$$!!   !##!  !$****$*$$****$***$$!    ",
"  !*$**!     !>!*$**!        !*$&*!        !*$!!*$$!      !-&!-&! !#&&!!--!     !*$!*$! !#$$!!**!    !!   !!#&-&#!!      !!    !$*$******$$***$$!!     ",
" !**$**!      !**$**!       !**$**!       !**$!!**$!     !#-&!-&! !##!!#-&!    !#*$!*$! !##!!#*$!          !#*&*#!             !$****$*$****$$!!       ",
"!**$!**!     !**$!**!      !**$!**!      !**$!  !**!     !##!#-&!  !! !##!     !##!#*$!  !! !##!            !#*$#!              !$$******$$$!!         ",
" !!!**$!      !!!**$!       !!!**$!       !!!   !*$!      !!!##!       !!       !!!##!       !!              !##!                !!$$$$$$!!!           ",
"    !!!          !!!           !!!               !!          !!                    !!                         !!                   !!!!!!              ",
"                                                      )))         ))              )     ))                           )))                               ",
"          )                                ))         )-&)       )&&)            )#)   )&&)                         )&&&)          ))   ))             ",
"         )-)                              )--)        )&-&)     )&&-&)           )&)  )&&-&)                       )&--&&)        )&&)))&&)            ",
"    ))   )-#)    ))            ))        )-))) ))      )&-)     )--&-)           )-)  )--&-)                      )&-&#&&)       )&,,&&&&&)))    )))   ",
"   )--)  )&-)   )&&)     )    )&&)      )-)   )&&)      )--)    )--&&)           )&&) )--&&)                      )&-&&&&)       )&)),&))&&&&)) )#&&)) ",
"  )----) )#&)  )&&-&)   )#)  )&&-&)    )-&)  )&&-&)      )--)   )&--&)           )#&) )&--&)                      )&&-&&)       )&)),&))&,),,&&))#--&&)",
"  )----)  )-)  )--&-)   )&)  )--&-)    )-)   )--&-)     ) )--)  )#&&-)        ) ))#-) )&&&-)                      )&&&&)        )&))&,))&,))),&))#&--&)",
"  )----)  )-)  )--&&)   )-)  )--&&)   )-&)   )--&&)    )&)-)--))&&-&-&)      )&)-))&&)&--#&&)                    )&-&))         )&)&,)))&))))&&))##&&) ",
"  )&--&)  )-)  )&--&)   )&&) )&--&)   )-#)   )&--&)    )#&&))--)&&-&&&)      )&&&))&-)#&-&-&)                    )&-&)          )&,&,))&,))),&#&&&#))) ",
"  )&&&-)  )--) )#&&-)   )&&) )&&&-)   )---))))#&&-)    )&--&))-&&&-&--&)     )&--&)#-&-#&---&)                 ))&-&#)           )&,)))&,))),&---&&&&&)",
"  )-----) )--) )-----)  )#-) )-----)  )------------)  )&---#&)&&&-&----&)   )&---#&)###&-----&)               )##&-&#)           )&,)),&,)))&&---&&&-&)",
" )-&--&-) )--))-&--&-)  )#-))-&--#-)) )-#&----&--&--) )&--&&&#&&&-&--&-&&)  )&--&&&####&---&-&&)            ))#&&-&)#)           )&))),&,)))&#&&&&---&)",
" )-&--&-)  )-))-&--&&&)  )&&)-#-&&&&&))-&))))&&-&#&-) )--&&-#&&&&-&----&-&) )--&&-#&&&#-&----&-&)         ))&&&-&-&)#)          )&,))),&,)))&##&&-##-&)",
" )-&--&-)  )-))-&-&---&) )&-)-&-#---&))-&)   )&----&-))&&)&--&-&&--&--&--&&))&&)&--&-&&--&---&-&&)  ))  ))&&&&-&-&#&#)) ))      )&))),,&,,)),&#&&-#&-&)",
" )-&--&-)  )-)&-&&----&) )#&&-&#----&))-&)   )&&--&--) )) )&----&--&&&----&) )) )&----&&##&&&---&) )##))&&&&--#&-&--&&&)##)     )&),,&&&&,,,,&##&-&--&)",
")-&---&-)  )---&-&--&-&) )---&&#--&-&))--)  )&--&&-&&)    )&---&&--&&----&&)    )&---&&--&&----&&))#&-&&&&--&&&-&#&&--&#&-#)   )&,,&&&##&&&&&&#&&---&) ",
")--&---&)  )---)&&-&&-&) )---)&#-&&-&) )-)  )&&--&)))     )&#--&#&-&&----&&)    )&&--&&&-&&----&&))#-&&&--&&--&-&))##&&#-&-#) )&&&&-&#&&-&###&&---&-&) ",
" )-&&--&)   )-))&&--&-&)  )&))##--&-&) )-)  )&&&&&)       )&#--&#&-&&&--&&&)    )&&--&&&-&&&--&&&))#-&-&&&)&&&&&###&&&-#&-&#))&&&&&&&&---&#&&--&----&) ",
"  )-&&-&)   )--)-&----&)   ) )-#----&)  )-))&--&&&)       )&-#-&#&--&#&--&&)    )&-&-&&&--&&&--&&))#-&#--&&&)##&&&&&--##&-&#))&--------&-&&--&---&-&)  ",
"  )-&--)    )--)-&&--&)      )&&&--&)    )-)&--&-&)       )&-&-&&&--&#)--&&)    )&-&-&&--&##)--&&))#-&&&#--&#&-#&&--#&&#-&-#))&-&--&-&-----&----&--&)  ",
"  )-&--)    )--)-&-&&)       )&&-&&)      ))&-&&--&)      )--)-&))&&##))--&)    )--)-&))&&#&))--&) )#--#&&#-#-&-#-#&&)))#-&#) )&-&------&&---&&---&)   ",
"  )----)     )-)-&--)        )-&&-)        )--)&&-&)      )--)-&) ))&#))--)     )--)-&) ))#&))--)   )##)))&&#&-&#&&))   )##)  )&----&-&&----&---&&)    ",
"  )-&--)     )-)-&--)        )-&&-)        )-&))-&&)      )-&)-&) )#&&))--)     )-&)-&) )#&&))--)    ))   ))#&-&#))      ))    )&-&------&&---&&))     ",
" )--&--)      )--&--)       )--&--)       )--&))--&)     )#-&)-&) )##))#-&)    )#-&)-&) )##))#-&)          )#-&-#)             )&----&-&----&&))       ",
")--&)--)     )--&)--)      )--&)--)      )--&)  )--)     )##)#-&)  )) )##)     )##)#-&)  )) )##)            )#-&#)              )&&------&&&))         ",
" )))--&)      )))--&)       )))--&)       )))   )-&)      )))##)       ))       )))##)       ))              )##)                ))&&&&&&)))           ",
"    )))          )))           )))               ))          ))                    ))                         ))                   ))))))              "};
