/* XPM */
static const char * work_xpm[] = {
"156 36 26 1",
" 	c None",
".	c #990000",
"+	c #FF0000",
"@	c #000000",
"#	c #1A1A1A",
"$	c #3D3333",
"%	c #4B3F3F",
"&	c #615151",
"*	c #808080",
"=	c #611F05",
"-	c #912F08",
";	c #331500",
">	c #612800",
",	c #471E00",
"'	c #663300",
")	c #804000",
"!	c #B25900",
"~	c #4B4135",
"{	c #3C342A",
"]	c #7B6B56",
"^	c #2D281F",
"/	c #FFAA00",
"(	c #333C4C",
"_	c #525F7A",
":	c #8592AD",
"<	c #667699",
"     ##        ##   ##      ####      ## ## ##      ##       ###           ##           ####                                                                ",
"    #==#      #==###{~#   ##^~^^#    #]^#{^#^]#   ##>,####  #>)>#         #_:#        ##.++.##                                                              ",
"   #=-==#    #=-!-=#^{#  #^{&]&~{#   #&{^{{^{&#  #_<:<<_<:# #)#,#        #_<#        #.+###...#                                                             ",
"  #=-!-==#  #=-!-=-=-^#  #]&&&]]~^#  #{&{]&{]{#  #(_<____<# #>>,,#      #_<#         #+#   #+.#                                                             ",
" #=-!-=-==# #=--=-=-;-# #&~;,;&&&{#  #^{]&&]{^#   ##>,#(_<#  ##,),#     #<:#        #.#   #+#..#                                                            ",
"  #=---==#  #;;=-=-;,;-##~;@@;;&]~{#  #{{&{{^#     #>,##(_#    #>),###  #<<#        #+#  #+# #+#                                                            ",
"  #^{&{{^#  #;',;=;,',;##&,#@@,~&&{#  #^&&&]^#     #)># #(#     #>>,<:# #_<_#  ##   #+# #+#  #+#                                                            ",
"  #{&]]&{#  #;;'',;';';##{,##@,&&{^#  #{&]]&{#     #)>#  #       #,_(<:##(_<_##_(#  #..#+#   #.#                                                            ",
"  #&],,&{#  #;,';';',';##~;###,~~{^#  #&],,&{#     #)>#          #_(__<# #(__:_((>#  #.+#   #+#                                                             ",
"  #{&,;&^#   ##,;';',;# #^;^##,~{^^#  #{&,;&^#     #>>#          #(<__<#  ######>)># #...###+.#                                                             ",
"   #{,;^#      ##,;;##   ###{^;{^##    #{,;^#      #,,#           #(<<<#        #,>#  ##.++.##                                                              ",
"    ####         ###        #####       ####        ##             #####         ##     ####                                                                ",
"     //        //   //      ////      // // //      //       ///           //           ////                                                                ",
"    /==/      /==///{~/   //^~^^/    /]^/{^/^]/   //>,////  />)>/         /_:/        //.++.//                                                              ",
"   /=-==/    /=-!-=/^{/  /^{&]&~{/   /&{^{{^{&/  /_<:<<_<:/ /)#,/        /_</        /.+///.../                                                             ",
"  /=-!-==/  /=-!-=-=-^/  /]&&&]]~^/  /{&{]&{]{/  /(_<____</ />>,,/      /_</         /+/   /+./                                                             ",
" /=-!-=-==/ /=--=-=-;-/ /&~;,;&&&{/  /^{]&&]{^/   //>,/(_</  //,),/     /<:/        /./   /+/../                                                            ",
"  /=---==/  /;;=-=-;,;-//~;@@;;&]~{/  /{{&{{^/     />,//(_/    />),///  /<</        /+/  /+/ /+/                                                            ",
"  /^{&{{^/  /;',;=;,',;//&,#@@,~&&{/  /^&&&]^/     /)>/ /(/     />>,<:/ /_<_/  //   /+/ /+/  /+/                                                            ",
"  /{&]]&{/  /;;'',;';';//{,##@,&&{^/  /{&]]&{/     /)>/  /       /,_(<://(_<_//_(/  /../+/   /./                                                            ",
"  /&],,&{/  /;,';';',';//~;###,~~{^/  /&],,&{/     /)>/          /_(__</ /(__:_((>/  /.+/   /+/                                                             ",
"  /{&,;&^/   //,;';',;/ /^;^##,~{^^/  /{&,;&^/     />>/          /(<__</  //////>)>/ /...///+./                                                             ",
"   /{,;^/      //,;;//   ///{^;{^//    /{,;^/      /,,/           /(<<</        /,>/  //.++.//                                                              ",
"    ////         ///        /////       ////        //             /////         //     ////                                                                ",
"     **        **   **      ****      ** ** **      **       ***           **           ****                                                                ",
"    *$$*      *$$***%%*   **$~$$*    *&$*%$*$&*   **%%****  *%&%*         *%&*        **%&&%**                                                              ",
"   *$%$$*    *$%&%$*$%*  *$%&&&~%*   *&%$%%$%&*  *%&&&&%&&* *&*%*        *%&*        *%&***%%%*                                                             ",
"  *$%&%$$*  *$%&%$%$%$*  *&&&&&&~$*  *%&%&&%&%*  *$%&%%%%&* *%%%%*      *%&*         *&*   *&%*                                                             ",
" *$%&%$%$$* *$%%$%$%$%* *&~%%%&&&%*  *$%&&&&%$*   **%%*$%&*  **%&%*     *&&*        *%*   *&*%%*                                                            ",
"  *$%%%$$*  *$$$%$%$%$%**~%$$%%&&~%*  *%%&%%$*     *%%**$%*    *%&%***  *&&*        *&*  *&* *&*                                                            ",
"  *$%&%%$*  *$&%$$$%&%$**&%$$$%~&&%*  *$&&&&$*     *&%* *$*     *%%%&&* *%&%*  **   *&* *&*  *&*                                                            ",
"  *%&&&&%*  *$$&&%$&$&$**%%$$$%&&%$*  *%&&&&%*     *&%*  *       *%%$&&**$%&%**%$*  *%%*&*   *%*                                                            ",
"  *&&%%&%*  *$%&$&$&%&$**~%$$$%~~%$*  *&&%%&%*     *&%*          *%$%%&* *$%%&%$$%*  *%&*   *&*                                                             ",
"  *%&%%&$*   **%$&$&%$* *$%$$$%~%$$*  *%&%%&$*     *%%*          *$&%%&*  ******%&%* *%%%***&%*                                                             ",
"   *%%%$*      **%$$**   ***%$%%$**    *%%%$*      *%%*           *$&&&*        *%%*  **%&&%**                                                              ",
"    ****         ***        *****       ****        **             *****         **     ****                                                                "};
